<svg xmlns="http://www.w3.org/2000/svg" width="687" height="354" fill="none"><path fill-rule="evenodd" d="M33.097 30.426v27.652H0v.5h33.097v27.836H0v.5h33.097v27.837H0v.5h33.097v27.835H0v.5h33.097v27.836H0v.5h33.097v27.838H0v.5h33.097v27.834H0v.5h33.097v27.837H0v.5h33.097v27.835H0v.5h33.097v27.836H0v.5h33.097v39.679h.6v-39.679h27.474v39.679h.6v-39.679h27.658v39.679h.6v-39.679h27.658v39.679h.6v-39.679h27.658v39.679h.6v-39.679h27.658v39.679h.6v-39.679h27.658v39.679h.6v-39.679h27.659v39.679h.6v-39.679h27.658v39.679h.6v-39.679h27.658v39.679h.6v-39.679h27.658v39.679h.6v-39.679l27.657.001v39.678h.6v-39.678h27.658v39.678h.6v-39.678h27.659v39.678h.6v-39.678h27.658v39.678h.6v-39.678h27.657v39.678h.6v-39.678h27.659v39.678h.6v-39.678h27.657v39.678h.6v-39.678h27.658v39.678h.6v-39.678h27.658v39.678h.601v-39.678h27.658v39.678h.6v-39.678h27.658v39.678h.6v-39.678h27.657v39.678h.6v-39.678H687v-.5h-31.811v-27.837H687v-.5h-31.811v-27.835H687v-.5h-31.811v-27.837H687v-.5h-31.811V200.26H687v-.5h-31.811v-27.838H687v-.5h-31.811v-27.836H687v-.5h-31.811v-27.835H687v-.5h-31.811V86.914H687v-.5h-31.811V58.578H687v-.5h-31.811V30.426H687v-.5h-31.811V0h-.6v29.926h-27.657V0h-.6v29.926h-27.658V0h-.6v29.926h-27.658V0h-.601v29.926h-27.658V0h-.6v29.926h-27.658V0h-.6v29.926h-27.657V0h-.6v29.926h-27.659V0h-.6v29.926h-27.657V0h-.6v29.926h-27.658V0h-.6v29.926h-27.659V0h-.6v29.926h-27.658V0h-.6v29.926h-27.657V0h-.6v29.926h-27.658V0h-.6v29.926h-27.658V0h-.6v29.926H231.32V0h-.6v29.926h-27.659V0h-.6v29.926h-27.658V0h-.6v29.926h-27.658V0h-.6v29.926h-27.658V0h-.6v29.926H90.029V0h-.6v29.926H61.771V0h-.6v29.926H33.697V0h-.6v29.926H0v.5h33.097zm621.492 282.677v-27.837h-27.657v27.837h27.657zm-28.257 0v-27.837h-27.658v27.837h27.658zm-28.258 0v-27.837h-27.658v27.837h27.658zm-28.259 0v-27.837h-27.658v27.837h27.658zm-28.258 0v-27.837h-27.658v27.837h27.658zm-28.258 0v-27.837h-27.657v27.837h27.657zm-28.257 0v-27.837h-27.659v27.837h27.659zm-28.259 0v-27.837h-27.657v27.837h27.657zm-28.257 0v-27.837h-27.658v27.837h27.658zm-28.258 0v-27.837h-27.659v27.837h27.659zm-28.259 0v-27.837h-27.658v27.837h27.658zm-28.258 0v-27.837h-27.657v27.836l27.657.001zm-28.257-.001v-27.836h-27.658v27.836h27.658zm-28.258 0v-27.836h-27.658v27.836h27.658zm-28.258 0v-27.836H231.32v27.836h27.658zm-28.258 0v-27.836h-27.659v27.836h27.659zm-28.259 0v-27.836h-27.658v27.836h27.658zm-28.258 0v-27.836h-27.658v27.836h27.658zm-28.258 0v-27.836h-27.658v27.836h27.658zm-28.258 0v-27.836H90.029v27.836h27.658zm-28.258 0v-27.836H61.771v27.836h27.658zm-28.258 0v-27.836H33.697v27.836h27.474zm0-28.336H33.697v-27.835h27.474v27.835zm28.258 0H61.771v-27.835h27.658v27.835zm28.258 0H90.029v-27.835h27.658v27.835zm28.258 0h-27.658v-27.835h27.658v27.835zm28.258 0h-27.658v-27.835h27.658v27.835zm28.258 0h-27.658v-27.835h27.658v27.835zm28.259 0h-27.659v-27.835h27.659v27.835zm28.258 0H231.32v-27.835h27.658v27.835zm28.258 0h-27.658v-27.835h27.658v27.835zm28.258 0h-27.658v-27.835h27.658v27.835zm28.257 0h-27.657v-27.835h27.657v27.835zm28.258 0h-27.658v-27.835h27.658v27.835zm28.259 0h-27.659v-27.835h27.659v27.835zm28.258 0h-27.658v-27.835h27.658v27.835zm28.257 0h-27.657v-27.835h27.657v27.835zm28.259 0h-27.659v-27.835h27.659v27.835zm28.257 0h-27.657v-27.835h27.657v27.835zm28.258 0h-27.658v-27.835h27.658v27.835zm28.258 0h-27.658v-27.835h27.658v27.835zm28.259 0h-27.658v-27.835h27.658v27.835zm28.258 0h-27.658v-27.835h27.658v27.835zm28.257 0h-27.657v-27.835h27.657v27.835zm0-28.335v-27.837h-27.657v27.837h27.657zm-28.257 0v-27.837h-27.658v27.837h27.658zm-28.258 0v-27.837h-27.658v27.837h27.658zm-28.259 0v-27.837h-27.658v27.837h27.658zm-28.258 0v-27.837h-27.658v27.837h27.658zm-28.258 0v-27.837h-27.657v27.837h27.657zm-28.257 0v-27.837h-27.659v27.837h27.659zm-28.259 0v-27.837h-27.657v27.837h27.657zm-28.257 0v-27.837h-27.658v27.837h27.658zm-28.258 0v-27.837h-27.659v27.837h27.659zm-28.259 0v-27.837h-27.658v27.837h27.658zm-28.258 0v-27.837h-27.657v27.837h27.657zm-28.257 0v-27.837h-27.658v27.837h27.658zm-28.258 0v-27.837h-27.658v27.837h27.658zm-28.258 0v-27.837H231.32v27.837h27.658zm-28.258 0v-27.837h-27.659v27.837h27.659zm-28.259 0v-27.837h-27.658v27.837h27.658zm-28.258 0v-27.837h-27.658v27.837h27.658zm-28.258 0v-27.837h-27.658v27.837h27.658zm-28.258 0v-27.837H90.029v27.837h27.658zm-28.258 0v-27.837H61.771v27.837h27.658zm-28.258 0v-27.837H33.697v27.837h27.474zm0-28.337H33.697V200.26h27.474v27.834zm28.258 0H61.771V200.26h27.658v27.834zm28.258 0H90.029V200.26h27.658v27.834zm28.258 0h-27.658V200.26h27.658v27.834zm28.258 0h-27.658V200.26h27.658v27.834zm28.258 0h-27.658V200.26h27.658v27.834zm28.259 0h-27.659V200.26h27.659v27.834zm28.258 0H231.32V200.26h27.658v27.834zm28.258 0h-27.658V200.26h27.658v27.834zm28.258 0h-27.658V200.26h27.658v27.834zm28.257 0h-27.657V200.26h27.657v27.834zm28.258 0h-27.658V200.26h27.658v27.834zm28.259 0h-27.659V200.26h27.659v27.834zm28.258 0h-27.658V200.26h27.658v27.834zm28.257 0h-27.657V200.26h27.657v27.834zm28.259 0h-27.659V200.26h27.659v27.834zm28.257 0h-27.657V200.26h27.657v27.834zm28.258 0h-27.658V200.26h27.658v27.834zm28.258 0h-27.658V200.26h27.658v27.834zm28.259 0h-27.658V200.26h27.658v27.834zm28.258 0h-27.658V200.26h27.658v27.834zm28.257 0h-27.657V200.26h27.657v27.834zm0-28.334v-27.838h-27.657v27.838h27.657zm-28.257 0v-27.838h-27.658v27.838h27.658zm-28.258 0v-27.838h-27.658v27.838h27.658zm-28.259 0v-27.838h-27.658v27.838h27.658zm-28.258 0v-27.838h-27.658v27.838h27.658zm-28.258 0v-27.838h-27.657v27.838h27.657zm-28.257 0v-27.838h-27.659v27.838h27.659zm-28.259 0v-27.838h-27.657v27.838h27.657zm-28.257 0v-27.838h-27.658v27.838h27.658zm-28.258 0v-27.838h-27.659v27.838h27.659zm-28.259 0v-27.838h-27.658v27.838h27.658zm-28.258 0v-27.838h-27.657v27.838h27.657zm-28.257 0v-27.838h-27.658v27.838h27.658zm-28.258 0v-27.838h-27.658v27.838h27.658zm-28.258 0v-27.838H231.32v27.838h27.658zm-28.258 0v-27.838h-27.659v27.838h27.659zm-28.259 0v-27.838h-27.658v27.838h27.658zm-28.258 0v-27.838h-27.658v27.838h27.658zm-28.258 0v-27.838h-27.658v27.838h27.658zm-28.258 0v-27.838H90.029v27.838h27.658zm-28.258 0v-27.838H61.771v27.838h27.658zm-28.258 0v-27.838H33.697v27.838h27.474zm0-28.338H33.697v-27.836h27.474v27.836zm28.258 0H61.771v-27.836h27.658v27.836zm28.258 0H90.029v-27.836h27.658v27.836zm28.258 0h-27.658v-27.836h27.658v27.836zm28.258 0h-27.658v-27.836h27.658v27.836zm28.258 0h-27.658v-27.836h27.658v27.836zm28.259 0h-27.659v-27.836h27.659v27.836zm28.258 0H231.32v-27.836h27.658v27.836zm28.258 0h-27.658v-27.836h27.658v27.836zm28.258 0h-27.658v-27.836h27.658v27.836zm28.257 0h-27.657v-27.836h27.657v27.836zm28.258 0h-27.658v-27.836h27.658v27.836zm28.259 0h-27.659v-27.836h27.659v27.836zm28.258 0h-27.658v-27.836h27.658v27.836zm28.257 0h-27.657v-27.836h27.657v27.836zm28.259 0h-27.659v-27.836h27.659v27.836zm28.257 0h-27.657v-27.836h27.657v27.836zm28.258 0h-27.658v-27.836h27.658v27.836zm28.258 0h-27.658v-27.836h27.658v27.836zm28.259 0h-27.658v-27.836h27.658v27.836zm28.258 0h-27.658v-27.836h27.658v27.836zm28.257 0h-27.657v-27.836h27.657v27.836zm0-28.336v-27.835h-27.657v27.835h27.657zm-28.257 0v-27.835h-27.658v27.835h27.658zm-28.258 0v-27.835h-27.658v27.835h27.658zm-28.259 0v-27.835h-27.658v27.835h27.658zm-28.258 0v-27.835h-27.658v27.835h27.658zm-28.258 0v-27.835h-27.657v27.835h27.657zm-28.257 0v-27.835h-27.659v27.835h27.659zm-28.259 0v-27.835h-27.657v27.835h27.657zm-28.257 0v-27.835h-27.658v27.835h27.658zm-28.258 0v-27.835h-27.659v27.835h27.659zm-28.259 0v-27.835h-27.658v27.835h27.658zm-28.258 0v-27.835h-27.657v27.835h27.657zm-28.257 0v-27.835h-27.658v27.835h27.658zm-28.258 0v-27.835h-27.658v27.835h27.658zm-28.258 0v-27.835H231.32v27.835h27.658zm-28.258 0v-27.835h-27.659v27.835h27.659zm-28.259 0v-27.835h-27.658v27.835h27.658zm-28.258 0v-27.835h-27.658v27.835h27.658zm-28.258 0v-27.835h-27.658v27.835h27.658zm-28.258 0v-27.835H90.029v27.835h27.658zm-28.258 0v-27.835H61.771v27.835h27.658zm-28.258 0v-27.835H33.697v27.835h27.474zm0-28.335H33.697V86.914h27.474v27.837zm28.258 0H61.771V86.914h27.658v27.837zm28.258 0H90.029V86.914h27.658v27.837zm28.258 0h-27.658V86.914h27.658v27.837zm28.258 0h-27.658V86.914h27.658v27.837zm28.258 0h-27.658V86.914h27.658v27.837zm28.259 0h-27.659V86.914h27.659v27.837zm28.258 0H231.32V86.914h27.658v27.837zm28.258 0h-27.658V86.914h27.658v27.837zm28.258 0h-27.658V86.914h27.658v27.837zm28.257 0h-27.657V86.914h27.657v27.837zm28.258 0h-27.658V86.914h27.658v27.837zm28.259 0h-27.659V86.914h27.659v27.837zm28.258 0h-27.658V86.914h27.658v27.837zm28.257 0h-27.657V86.914h27.657v27.837zm28.259 0h-27.659V86.914h27.659v27.837zm28.257 0h-27.657V86.914h27.657v27.837zm28.258 0h-27.658V86.914h27.658v27.837zm28.258 0h-27.658V86.914h27.658v27.837zm28.259 0h-27.658V86.914h27.658v27.837zm28.258 0h-27.658V86.914h27.658v27.837zm28.257 0h-27.657V86.914h27.657v27.837zm0-28.337V58.578h-27.657v27.836h27.657zm-28.257 0V58.578h-27.658v27.836h27.658zm-28.258 0V58.578h-27.658v27.836h27.658zm-28.259 0V58.578h-27.658v27.836h27.658zm-28.258 0V58.578h-27.658v27.836h27.658zm-28.258 0V58.578h-27.657v27.836h27.657zm-28.257 0V58.578h-27.659v27.836h27.659zm-28.259 0V58.578h-27.657v27.836h27.657zm-28.257 0V58.578h-27.658v27.836h27.658zm-28.258 0V58.578h-27.659v27.836h27.659zm-28.259 0V58.578h-27.658v27.836h27.658zm-28.258 0V58.578h-27.657v27.836h27.657zm-28.257 0V58.578h-27.658v27.836h27.658zm-28.258 0V58.578h-27.658v27.836h27.658zm-28.258 0V58.578H231.32v27.836h27.658zm-28.258 0V58.578h-27.659v27.836h27.659zm-28.259 0V58.578h-27.658v27.836h27.658zm-28.258 0V58.578h-27.658v27.836h27.658zm-28.258 0V58.578h-27.658v27.836h27.658zm-28.258 0V58.578H90.029v27.836h27.658zm-28.258 0V58.578H61.771v27.836h27.658zm-28.258 0V58.578H33.697v27.836h27.474zm0-28.336H33.697V30.426h27.474v27.652zm28.258 0H61.771V30.426h27.658v27.652zm28.258 0H90.029V30.426h27.658v27.652zm28.258 0h-27.658V30.426h27.658v27.652zm28.258 0h-27.658V30.426h27.658v27.652zm28.258 0h-27.658V30.426h27.658v27.652zm28.259 0h-27.659V30.426h27.659v27.652zm28.258 0H231.32V30.426h27.658v27.652zm28.258 0h-27.658V30.426h27.658v27.652zm28.258 0h-27.658V30.426h27.658v27.652zm28.257 0h-27.657V30.426h27.657v27.652zm28.258 0h-27.658V30.426h27.658v27.652zm28.259 0h-27.659V30.426h27.659v27.652zm28.258 0h-27.658V30.426h27.658v27.652zm28.257 0h-27.657V30.426h27.657v27.652zm28.259 0h-27.659V30.426h27.659v27.652zm28.257 0h-27.657V30.426h27.657v27.652zm28.258 0h-27.658V30.426h27.658v27.652zm28.258 0h-27.658V30.426h27.658v27.652zm28.259 0h-27.658V30.426h27.658v27.652zm28.258 0h-27.658V30.426h27.658v27.652zm28.257 0h-27.657V30.426h27.657v27.652z" fill="url(#A)" fill-opacity=".8"></path><defs><radialGradient id="A" cx="0" cy="0" r="1" gradientUnits="userSpaceOnUse" gradientTransform="translate(343.5 164.57) rotate(-90) scale(179.658 349.368)"><stop stop-color="#fff"></stop><stop offset=".875" stop-color="#1b66f3" stop-opacity=".1"></stop></radialGradient></defs></svg>